<?xml version="1.0" encoding="UTF-8" standalone="no"?>
<svg width="257px" height="213px" viewBox="0 0 257 213" version="1.1" xmlns="http://www.w3.org/2000/svg" xmlns:xlink="http://www.w3.org/1999/xlink">
    <defs>
        <path d="M174,88 L174,188.004813 C174,201.809273 162.810971,213 148.997297,213 L107.002703,213 C93.1940915,213 82,201.810853 82,188.004813 L82,88 L82,88 L82,88" id="path-1"></path>
        <mask id="mask-2" maskContentUnits="userSpaceOnUse" maskUnits="objectBoundingBox" x="0" y="0" width="92" height="125" fill="white">
            <use xlink:href="#path-1"></use>
        </mask>
        <path d="M92,91 L24.9991034,91 C11.1924799,91 0,79.8074218 0,65.9984288 L0,25.0015712 C0,11.1935847 11.1875061,0 24.9928524,0 L232.007148,0 C245.810319,0 257,11.1925782 257,25.0015712 L257,65.9984288 C257,79.8064153 245.804145,91 232.006995,91 L164,91" id="path-3"></path>
        <mask id="mask-4" maskContentUnits="userSpaceOnUse" maskUnits="objectBoundingBox" x="0" y="0" width="257" height="91" fill="white">
            <use xlink:href="#path-3"></use>
        </mask>
    </defs>
    <g id="Page-1" stroke="none" stroke-width="1" fill="none" fill-rule="evenodd">
        <g id="Logo2">
            <path d="M174,88 L174,188.004813 C174,201.809273 162.810971,213 148.997297,213 L107.002703,213 C93.1940915,213 82,201.810853 82,188.004813 L82,88 L82,88 L82,88" id="Mask-Copy" fill="#36597C"></path>
            <path d="M92,91 L24.9991034,91 C11.1924799,91 0,79.8074218 0,65.9984288 L0,25.0015712 C0,11.1935847 11.1875061,0 24.9928524,0 L232.007148,0 C245.810319,0 257,11.1925782 257,25.0015712 L257,65.9984288 C257,79.8064153 245.804145,91 232.006995,91 L164,91" id="Rectangle-6" fill="#36597C"></path>
            <path d="M92,91 L24.9991034,91 C11.1924799,91 0,79.8074218 0,65.9984288 L0,25.0015712 C0,11.1935847 11.1875061,0 24.9928524,0 L232.007148,0 C245.810319,0 257,11.1925782 257,25.0015712 L257,65.9984288 C257,79.8064153 245.804145,91 232.006995,91 L164,91" id="Rectangle-6-Copy-3" fill="#36597C"></path>
            <g id="Shadow2" transform="translate(141.000000, 81.000000)" fill="#2A4866">
                <rect id="Rectangle-6-Copy-2" x="11" y="0" width="14" height="126"></rect>
                <path d="M0,111 C5.5,111 11,116.5 11,122 L11,111 L0,111 Z" id="Path-5-Copy-5" transform="translate(5.500000, 116.500000) scale(1, -1) translate(-5.500000, -116.500000) "></path>
            </g>
            <use id="Mask-Copy-2" stroke="#293949" mask="url(#mask-2)" stroke-width="20" xlink:href="#path-1"></use>
            <g id="Shadow1" transform="translate(224.000000, 7.000000)" fill="#2A4866">
                <rect id="Rectangle-6" x="11" y="0" width="14" height="78"></rect>
                <path d="M0,3 C5.5,3.00000008 11,8.5 11,14 L11,3 L0,3 Z" id="Path-5-Copy-3"></path>
                <path d="M0,63 C5.5,63.0000001 11,68.5 11,74 L11,63 L0,63 Z" id="Path-5-Copy-4" transform="translate(5.500000, 68.500000) scale(1, -1) translate(-5.500000, -68.500000) "></path>
            </g>
            <use id="Rectangle-6-Copy" stroke="#293949" mask="url(#mask-4)" stroke-width="20" xlink:href="#path-3"></use>
            <path d="M22,37 L22,29 C22,24.581722 25.5905705,21 29.9995311,21 L69,21" id="Path-1-Copy" stroke="#4B8CCD" stroke-width="10" stroke-linecap="round"></path>
            <path d="M85,81 C88.5,81 92,84.5 92,88 L92,81 L85,81 Z" id="Path-5" fill="#375A7C"></path>
            <path d="M27,26 C29.5,26 32,28.5 32,31 L32,26 L27,26 Z" id="Path-5-Copy" fill="#4B8CCD" transform="translate(29.500000, 28.500000) scale(-1, 1) translate(-29.500000, -28.500000) "></path>
            <path d="M152,81 C159,81.0000001 166,88 166,95 L166,81 L152,81 Z" id="Path-5-Copy-2" fill="#375A7C" transform="translate(159.000000, 88.000000) scale(-1, 1) translate(-159.000000, -88.000000) "></path>
            <path d="M164,81 C167.5,81 171,84.5 171,88 L171,81 L164,81 Z" id="Path-5-Copy-6" fill="#2A4866" transform="translate(167.500000, 84.500000) scale(-1, 1) translate(-167.500000, -84.500000) "></path>
            <circle id="Oval-1-Copy-2" fill="#4A8CCD" cx="115" cy="21" r="5"></circle>
            <rect id="Rectangle-8" fill="#4A8CCD" x="81" y="16" width="23" height="10" rx="25"></rect>
        </g>
    </g>
</svg>
